<svg width="174" height="75" viewBox="0 0 174 75" fill="none" xmlns="http://www.w3.org/2000/svg">
<g clip-path="url(#clip0_21763_2675)">
<path d="M75.6188 26.5786H84.927C86.9128 26.5786 88.7068 27.0525 90.309 28.0002C91.9337 28.9254 93.2087 30.2681 94.1338 32.0282C95.0816 33.7883 95.5555 35.853 95.5555 38.2224C95.5555 40.7498 95.0928 42.9273 94.1677 44.755C93.2424 46.5603 91.9675 47.9368 90.3428 48.8846C88.7407 49.8097 86.9355 50.2724 84.927 50.2724H75.6188V26.5786ZM84.4533 46.2444C86.281 46.2444 87.7929 45.5675 88.9889 44.2135C90.1849 42.8596 90.7829 40.8626 90.7829 38.2224C90.7829 36.5977 90.5008 35.2099 89.9367 34.0591C89.3725 32.9082 88.6052 32.0507 87.6349 31.4866C86.6873 30.8999 85.6266 30.6065 84.4533 30.6065H80.3237V46.2444H84.4533Z" fill="#030A13"/>
<path d="M106.035 36.8698C105.087 36.8698 104.331 37.2646 103.767 38.0544C103.203 38.8441 102.92 39.7694 102.92 40.8299V50.2736H98.5541V33.2141H102.92V35.4481C103.259 34.726 103.722 34.1731 104.308 33.7895C104.895 33.4059 105.583 33.2141 106.373 33.2141H108.472V36.8698H106.035Z" fill="#030A13"/>
<path d="M110.85 33.2153H115.216V50.2748H110.85V33.2153ZM115.419 26.2764V30.7443H110.715V26.2764H115.419Z" fill="#030A13"/>
<path d="M120.638 36.8714H117.457V33.2157H120.638V30.8801C120.638 29.2554 121.045 28.0143 121.857 27.1568C122.669 26.2993 123.832 25.8706 125.343 25.8706H129.507V29.5262H126.799C126.19 29.5262 125.738 29.6842 125.445 30.0001C125.152 30.2934 125.005 30.7899 125.005 31.4894V33.2157H129.845V36.8714H125.005V50.2752H120.638V36.8714Z" fill="#030A13"/>
<path d="M138.261 27.2578V33.2151H142.864V36.8708H138.261V44.7573C138.261 45.9985 138.825 46.619 139.953 46.619H142.763V50.2746H138.667C137.132 50.2746 135.948 49.8684 135.113 49.0561C134.3 48.2212 133.894 46.9463 133.894 45.2312V36.8708H130.713V33.2151H133.894V29.0856L138.261 27.2578Z" fill="#030A13"/>
<path d="M55.9286 49.7619C55.9286 51.0043 55.4656 52.0935 54.7226 52.9288C54.7138 52.9386 54.7077 52.9506 54.7051 52.9636C54.6939 53.0169 54.7416 53.0639 54.7946 53.051C56.9373 52.5229 58.6699 50.6925 58.6699 48.2891V35.829C58.6699 32.1457 56.6125 28.7422 53.2729 26.9006L39.788 19.4644L37.1167 20.9758L50.5316 28.3734C53.8712 30.215 55.9286 33.6185 55.9286 37.3019V49.7619Z" fill="url(#paint0_linear_21763_2675)"/>
<path d="M55.9286 49.7619C55.9286 51.0043 55.4656 52.0935 54.7226 52.9288C54.7138 52.9386 54.7077 52.9506 54.7051 52.9636C54.6939 53.0169 54.7416 53.0639 54.7946 53.051C56.9373 52.5229 58.6699 50.6925 58.6699 48.2891V35.829C58.6699 32.1457 56.6125 28.7422 53.2729 26.9006L39.788 19.4644L37.1167 20.9758L50.5316 28.3734C53.8712 30.215 55.9286 33.6185 55.9286 37.3019V49.7619Z" fill="url(#paint1_linear_21763_2675)"/>
<path d="M55.9286 49.7619C55.9286 51.0043 55.4656 52.0935 54.7226 52.9288C54.7138 52.9386 54.7077 52.9506 54.7051 52.9636C54.6939 53.0169 54.7416 53.0639 54.7946 53.051C56.9373 52.5229 58.6699 50.6925 58.6699 48.2891V35.829C58.6699 32.1457 56.6125 28.7422 53.2729 26.9006L39.788 19.4644L37.1167 20.9758L50.5316 28.3734C53.8712 30.215 55.9286 33.6185 55.9286 37.3019V49.7619Z" fill="url(#paint2_radial_21763_2675)" fill-opacity="0.2"/>
<path d="M55.9286 49.7619C55.9286 51.0043 55.4656 52.0935 54.7226 52.9288C54.7138 52.9386 54.7077 52.9506 54.7051 52.9636C54.6939 53.0169 54.7416 53.0639 54.7946 53.051C56.9373 52.5229 58.6699 50.6925 58.6699 48.2891V35.829C58.6699 32.1457 56.6125 28.7422 53.2729 26.9006L39.788 19.4644L37.1167 20.9758L50.5316 28.3734C53.8712 30.215 55.9286 33.6185 55.9286 37.3019V49.7619Z" fill="url(#paint3_radial_21763_2675)" fill-opacity="0.1"/>
<path d="M55.9286 49.7619C55.9286 51.0043 55.4656 52.0935 54.7226 52.9288C54.7138 52.9386 54.7077 52.9506 54.7051 52.9636C54.6939 53.0169 54.7416 53.0639 54.7946 53.051C56.9373 52.5229 58.6699 50.6925 58.6699 48.2891V35.829C58.6699 32.1457 56.6125 28.7422 53.2729 26.9006L39.788 19.4644L37.1167 20.9758L50.5316 28.3734C53.8712 30.215 55.9286 33.6185 55.9286 37.3019V49.7619Z" fill="url(#paint4_linear_21763_2675)" fill-opacity="0.2"/>
<path d="M52.1612 51.8919V39.4317C52.1612 35.7484 50.1037 32.3449 46.7641 30.5032L33.3493 23.1057L36.0206 21.5942L49.5054 29.0304C52.8452 30.8721 54.9024 34.2756 54.9024 37.9589V50.419C54.9024 52.8225 53.1701 54.6527 51.0273 55.1808C50.9743 55.1938 50.9264 55.1469 50.9376 55.0934C50.9404 55.0804 50.9465 55.0685 50.9551 55.0586C51.6983 54.2233 52.1612 53.1341 52.1612 51.8919Z" fill="url(#paint5_linear_21763_2675)"/>
<path d="M52.1612 51.8919V39.4317C52.1612 35.7484 50.1037 32.3449 46.7641 30.5032L33.3493 23.1057L36.0206 21.5942L49.5054 29.0304C52.8452 30.8721 54.9024 34.2756 54.9024 37.9589V50.419C54.9024 52.8225 53.1701 54.6527 51.0273 55.1808C50.9743 55.1938 50.9264 55.1469 50.9376 55.0934C50.9404 55.0804 50.9465 55.0685 50.9551 55.0586C51.6983 54.2233 52.1612 53.1341 52.1612 51.8919Z" fill="url(#paint6_linear_21763_2675)"/>
<path d="M52.1612 51.8919V39.4317C52.1612 35.7484 50.1037 32.3449 46.7641 30.5032L33.3493 23.1057L36.0206 21.5942L49.5054 29.0304C52.8452 30.8721 54.9024 34.2756 54.9024 37.9589V50.419C54.9024 52.8225 53.1701 54.6527 51.0273 55.1808C50.9743 55.1938 50.9264 55.1469 50.9376 55.0934C50.9404 55.0804 50.9465 55.0685 50.9551 55.0586C51.6983 54.2233 52.1612 53.1341 52.1612 51.8919Z" fill="url(#paint7_radial_21763_2675)" fill-opacity="0.2"/>
<path d="M52.1612 51.8919V39.4317C52.1612 35.7484 50.1037 32.3449 46.7641 30.5032L33.3493 23.1057L36.0206 21.5942L49.5054 29.0304C52.8452 30.8721 54.9024 34.2756 54.9024 37.9589V50.419C54.9024 52.8225 53.1701 54.6527 51.0273 55.1808C50.9743 55.1938 50.9264 55.1469 50.9376 55.0934C50.9404 55.0804 50.9465 55.0685 50.9551 55.0586C51.6983 54.2233 52.1612 53.1341 52.1612 51.8919Z" fill="url(#paint8_radial_21763_2675)" fill-opacity="0.1"/>
<path d="M52.1612 51.8919V39.4317C52.1612 35.7484 50.1037 32.3449 46.7641 30.5032L33.3493 23.1057L36.0206 21.5942L49.5054 29.0304C52.8452 30.8721 54.9024 34.2756 54.9024 37.9589V50.419C54.9024 52.8225 53.1701 54.6527 51.0273 55.1808C50.9743 55.1938 50.9264 55.1469 50.9376 55.0934C50.9404 55.0804 50.9465 55.0685 50.9551 55.0586C51.6983 54.2233 52.1612 53.1341 52.1612 51.8919Z" fill="url(#paint9_linear_21763_2675)" fill-opacity="0.2"/>
<path fill-rule="evenodd" clip-rule="evenodd" d="M29.4059 25.3339L32.112 23.8027L45.5969 31.239C48.9365 33.0806 50.994 36.4841 50.994 40.1674V52.6889C50.9479 56.4323 46.692 58.7586 43.2839 56.8792L31.0622 50.1396L29.4059 49.2498V25.3339ZM48.2525 41.6792V48.9126L39.1719 43.9052V30.7193L42.8556 32.7507C46.1953 34.5923 48.2525 37.9958 48.2525 41.6792ZM35.7453 28.8297L37.1159 29.5855V45.0382L37.2598 45.1154L48.2525 51.1772V52.5766L35.7629 45.6893L35.7453 45.6993V28.8297ZM33.5179 27.6014V46.8879L33.5823 46.923L33.5179 46.9595L48.2357 55.0755C48.1127 55.7229 47.3395 56.0922 46.7106 55.7454L32.1473 47.7145V26.8456L33.5179 27.6014Z" fill="url(#paint10_linear_21763_2675)"/>
<path fill-rule="evenodd" clip-rule="evenodd" d="M29.4059 25.3339L32.112 23.8027L45.5969 31.239C48.9365 33.0806 50.994 36.4841 50.994 40.1674V52.6889C50.9479 56.4323 46.692 58.7586 43.2839 56.8792L31.0622 50.1396L29.4059 49.2498V25.3339ZM48.2525 41.6792V48.9126L39.1719 43.9052V30.7193L42.8556 32.7507C46.1953 34.5923 48.2525 37.9958 48.2525 41.6792ZM35.7453 28.8297L37.1159 29.5855V45.0382L37.2598 45.1154L48.2525 51.1772V52.5766L35.7629 45.6893L35.7453 45.6993V28.8297ZM33.5179 27.6014V46.8879L33.5823 46.923L33.5179 46.9595L48.2357 55.0755C48.1127 55.7229 47.3395 56.0922 46.7106 55.7454L32.1473 47.7145V26.8456L33.5179 27.6014Z" fill="url(#paint11_linear_21763_2675)"/>
<path fill-rule="evenodd" clip-rule="evenodd" d="M29.4059 25.3339L32.112 23.8027L45.5969 31.239C48.9365 33.0806 50.994 36.4841 50.994 40.1674V52.6889C50.9479 56.4323 46.692 58.7586 43.2839 56.8792L31.0622 50.1396L29.4059 49.2498V25.3339ZM48.2525 41.6792V48.9126L39.1719 43.9052V30.7193L42.8556 32.7507C46.1953 34.5923 48.2525 37.9958 48.2525 41.6792ZM35.7453 28.8297L37.1159 29.5855V45.0382L37.2598 45.1154L48.2525 51.1772V52.5766L35.7629 45.6893L35.7453 45.6993V28.8297ZM33.5179 27.6014V46.8879L33.5823 46.923L33.5179 46.9595L48.2357 55.0755C48.1127 55.7229 47.3395 56.0922 46.7106 55.7454L32.1473 47.7145V26.8456L33.5179 27.6014Z" fill="url(#paint12_radial_21763_2675)" fill-opacity="0.2"/>
<path fill-rule="evenodd" clip-rule="evenodd" d="M29.4059 25.3339L32.112 23.8027L45.5969 31.239C48.9365 33.0806 50.994 36.4841 50.994 40.1674V52.6889C50.9479 56.4323 46.692 58.7586 43.2839 56.8792L31.0622 50.1396L29.4059 49.2498V25.3339ZM48.2525 41.6792V48.9126L39.1719 43.9052V30.7193L42.8556 32.7507C46.1953 34.5923 48.2525 37.9958 48.2525 41.6792ZM35.7453 28.8297L37.1159 29.5855V45.0382L37.2598 45.1154L48.2525 51.1772V52.5766L35.7629 45.6893L35.7453 45.6993V28.8297ZM33.5179 27.6014V46.8879L33.5823 46.923L33.5179 46.9595L48.2357 55.0755C48.1127 55.7229 47.3395 56.0922 46.7106 55.7454L32.1473 47.7145V26.8456L33.5179 27.6014Z" fill="url(#paint13_radial_21763_2675)" fill-opacity="0.1"/>
<path fill-rule="evenodd" clip-rule="evenodd" d="M29.4059 25.3339L32.112 23.8027L45.5969 31.239C48.9365 33.0806 50.994 36.4841 50.994 40.1674V52.6889C50.9479 56.4323 46.692 58.7586 43.2839 56.8792L31.0622 50.1396L29.4059 49.2498V25.3339ZM48.2525 41.6792V48.9126L39.1719 43.9052V30.7193L42.8556 32.7507C46.1953 34.5923 48.2525 37.9958 48.2525 41.6792ZM35.7453 28.8297L37.1159 29.5855V45.0382L37.2598 45.1154L48.2525 51.1772V52.5766L35.7629 45.6893L35.7453 45.6993V28.8297ZM33.5179 27.6014V46.8879L33.5823 46.923L33.5179 46.9595L48.2357 55.0755C48.1127 55.7229 47.3395 56.0922 46.7106 55.7454L32.1473 47.7145V26.8456L33.5179 27.6014Z" fill="url(#paint14_linear_21763_2675)" fill-opacity="0.2"/>
</g>
<defs>
<linearGradient id="paint0_linear_21763_2675" x1="28.9194" y1="38.5034" x2="58.3435" y2="35.8729" gradientUnits="userSpaceOnUse">
<stop stop-color="#FF3873"/>
<stop offset="0.473958" stop-color="#711EFF"/>
<stop offset="1" stop-color="#3FE5FF"/>
</linearGradient>
<linearGradient id="paint1_linear_21763_2675" x1="31.2204" y1="21.2168" x2="51.7631" y2="38.6685" gradientUnits="userSpaceOnUse">
<stop stop-color="#F6F063"/>
<stop offset="1" stop-color="#E07774" stop-opacity="0"/>
</linearGradient>
<radialGradient id="paint2_radial_21763_2675" cx="0" cy="0" r="1" gradientUnits="userSpaceOnUse" gradientTransform="translate(30.1782 32.8498) rotate(65.584) scale(8.52994 7.31992)">
<stop offset="0.925861" stop-color="white"/>
<stop offset="1" stop-color="white" stop-opacity="0"/>
</radialGradient>
<radialGradient id="paint3_radial_21763_2675" cx="0" cy="0" r="1" gradientUnits="userSpaceOnUse" gradientTransform="translate(34.4283 29.3185) rotate(59.0024) scale(5.41406 7.39437)">
<stop offset="0.0864251" stop-color="white"/>
<stop offset="0.94115" stop-color="white" stop-opacity="0"/>
</radialGradient>
<linearGradient id="paint4_linear_21763_2675" x1="32.7567" y1="30.0406" x2="48.0022" y2="35.4227" gradientUnits="userSpaceOnUse">
<stop stop-color="white"/>
<stop offset="1" stop-opacity="0"/>
</linearGradient>
<linearGradient id="paint5_linear_21763_2675" x1="28.9214" y1="38.5059" x2="58.3454" y2="35.8754" gradientUnits="userSpaceOnUse">
<stop stop-color="#FF3873"/>
<stop offset="0.473958" stop-color="#711EFF"/>
<stop offset="1" stop-color="#3FE5FF"/>
</linearGradient>
<linearGradient id="paint6_linear_21763_2675" x1="31.2223" y1="21.2193" x2="51.765" y2="38.671" gradientUnits="userSpaceOnUse">
<stop stop-color="#F6F063"/>
<stop offset="1" stop-color="#E07774" stop-opacity="0"/>
</linearGradient>
<radialGradient id="paint7_radial_21763_2675" cx="0" cy="0" r="1" gradientUnits="userSpaceOnUse" gradientTransform="translate(30.1801 32.8523) rotate(65.584) scale(8.52994 7.31992)">
<stop offset="0.925861" stop-color="white"/>
<stop offset="1" stop-color="white" stop-opacity="0"/>
</radialGradient>
<radialGradient id="paint8_radial_21763_2675" cx="0" cy="0" r="1" gradientUnits="userSpaceOnUse" gradientTransform="translate(34.4302 29.321) rotate(59.0024) scale(5.41406 7.39437)">
<stop offset="0.0864251" stop-color="white"/>
<stop offset="0.94115" stop-color="white" stop-opacity="0"/>
</radialGradient>
<linearGradient id="paint9_linear_21763_2675" x1="32.7586" y1="30.0431" x2="48.0041" y2="35.4252" gradientUnits="userSpaceOnUse">
<stop stop-color="white"/>
<stop offset="1" stop-opacity="0"/>
</linearGradient>
<linearGradient id="paint10_linear_21763_2675" x1="28.9187" y1="38.5052" x2="58.3427" y2="35.8747" gradientUnits="userSpaceOnUse">
<stop stop-color="#FF3873"/>
<stop offset="0.473958" stop-color="#711EFF"/>
<stop offset="1" stop-color="#3FE5FF"/>
</linearGradient>
<linearGradient id="paint11_linear_21763_2675" x1="31.2197" y1="21.2186" x2="51.7623" y2="38.6703" gradientUnits="userSpaceOnUse">
<stop stop-color="#F6F063"/>
<stop offset="1" stop-color="#E07774" stop-opacity="0"/>
</linearGradient>
<radialGradient id="paint12_radial_21763_2675" cx="0" cy="0" r="1" gradientUnits="userSpaceOnUse" gradientTransform="translate(30.1775 32.8516) rotate(65.584) scale(8.52994 7.31992)">
<stop offset="0.925861" stop-color="white"/>
<stop offset="1" stop-color="white" stop-opacity="0"/>
</radialGradient>
<radialGradient id="paint13_radial_21763_2675" cx="0" cy="0" r="1" gradientUnits="userSpaceOnUse" gradientTransform="translate(34.4275 29.3203) rotate(59.0024) scale(5.41406 7.39437)">
<stop offset="0.0864251" stop-color="white"/>
<stop offset="0.94115" stop-color="white" stop-opacity="0"/>
</radialGradient>
<linearGradient id="paint14_linear_21763_2675" x1="32.7559" y1="30.0424" x2="48.0014" y2="35.4244" gradientUnits="userSpaceOnUse">
<stop stop-color="white"/>
<stop offset="1" stop-opacity="0"/>
</linearGradient>
<clipPath id="clip0_21763_2675">
<rect width="114.234" height="38.0781" fill="white" transform="translate(29.4059 19.4648)"/>
</clipPath>
</defs>
</svg>
