<svg width="174" height="75" viewBox="0 0 174 75" fill="none" xmlns="http://www.w3.org/2000/svg">
<path fill-rule="evenodd" clip-rule="evenodd" d="M63.9546 44.0116L62.1384 40.8584H59.4834V44.0116H57.9194V34.5395H62.6303C63.2041 34.5332 63.7717 34.6908 64.2636 34.9872C64.7555 35.2836 65.1591 35.7062 65.4303 36.217C65.7014 36.7278 65.8213 37.3017 65.7897 37.8755C65.7582 38.4494 65.569 39.0107 65.2411 39.4836C64.9005 39.9882 64.4213 40.3791 63.86 40.6125L65.7897 44.0116H63.9546ZM62.624 36.1476H59.4834V39.2945H62.6303C62.8384 39.2945 63.0402 39.2503 63.2294 39.1683C63.4186 39.0864 63.5888 38.9665 63.7276 38.8152C63.942 38.5945 64.0933 38.317 64.1501 38.008C64.2068 37.7053 64.1753 37.39 64.0618 37.0999C63.942 36.8161 63.7465 36.5701 63.4879 36.3936C63.2294 36.217 62.933 36.1224 62.624 36.1224V36.1476ZM79.3736 34.5395L74.6501 44.0116H76.4033L79.3673 38.0773L82.3249 44.0116H84.0781L79.3736 34.5395ZM99.2511 34.5395H97.252L94.5655 38.0332L91.8916 34.5395H89.8862L93.8214 39.5909V44.0116H95.3853V39.5152L99.2511 34.5395ZM107.266 34.5395H110.401C111.649 34.5458 112.841 35.0503 113.718 35.9395C114.601 36.8224 115.099 38.0269 115.105 39.2755C115.099 40.5305 114.601 41.7287 113.718 42.6179C112.835 43.5071 111.643 44.0053 110.394 44.0116H107.26V34.5395H107.266ZM110.401 42.4035C111.233 42.4035 112.028 42.0692 112.614 41.4764C113.201 40.8837 113.535 40.0828 113.535 39.2503C113.522 38.4179 113.194 37.617 112.608 37.0305C112.021 36.444 111.227 36.1035 110.401 36.0972H108.818V42.4035H110.401ZM125.567 34.5395H124.003V44.0116H125.567V34.5395ZM142.304 40.0575C142.311 40.5809 142.216 41.0981 142.014 41.5774C141.819 42.0566 141.522 42.4918 141.144 42.8512C140.595 43.4062 139.895 43.7783 139.132 43.9296C138.369 44.081 137.581 44.0053 136.862 43.7026C136.143 43.4062 135.531 42.8954 135.103 42.2458C134.674 41.5963 134.447 40.8332 134.447 40.0512V34.5395H136.011V40.0512C136.011 40.6819 136.257 41.281 136.704 41.7224C137.146 42.1638 137.745 42.4161 138.369 42.4161C138.994 42.4161 139.593 42.1638 140.034 41.7224C140.476 41.281 140.722 40.6755 140.722 40.0512V34.5395H142.298V40.0575H142.304ZM152.754 44.0116V38.3485L155.907 41.508L159.048 38.3485V44.0116H160.637V34.5395L155.907 39.2755L151.196 34.5395V44.0116H152.754Z" fill="#193650"/>
<path d="M46.2973 34.2422V48.3243L30.7144 57.3675L15.1251 48.3243V30.2377L30.7207 21.1818L42.6964 28.1377L44.5063 27.0909L30.7207 19.0881L13.3215 29.1846V49.3711L30.7207 59.4675L48.1198 49.3711V33.1954L46.2973 34.2422Z" fill="url(#paint0_linear_21763_2666)"/>
<path d="M26.3563 48.3375H23.7518V39.5465H32.442C33.2618 39.5402 34.0501 39.206 34.6302 38.6132C35.2104 38.0267 35.5321 37.2321 35.5384 36.4059C35.5447 35.996 35.4627 35.5924 35.305 35.2141C35.1474 34.8357 34.914 34.4951 34.6239 34.2113C34.3402 33.9213 33.9996 33.6879 33.6275 33.5303C33.2555 33.3726 32.8519 33.2906 32.442 33.2969H23.7518V30.623H32.4483C33.9681 30.6294 35.4311 31.2474 36.5032 32.3258C37.5816 33.4104 38.187 34.8735 38.1996 36.4059C38.2059 37.5789 37.8528 38.7204 37.1843 39.6789C36.5663 40.5933 35.696 41.3123 34.6807 41.7411C33.6717 42.0627 32.6248 42.2204 31.5717 42.2141H26.3563V48.3375Z" fill="url(#paint1_linear_21763_2666)"/>
<path d="M38.1368 48.1146H35.0972L32.7512 44.0029C33.6783 43.9462 34.5927 43.757 35.4692 43.4417L38.1368 48.1146Z" fill="url(#paint2_linear_21763_2666)"/>
<path d="M44.4803 31.3166L46.2776 32.3193L48.075 31.3166V29.1914L46.2776 28.1445L44.4803 29.1914V31.3166Z" fill="url(#paint3_linear_21763_2666)"/>
<defs>
<linearGradient id="paint0_linear_21763_2666" x1="49.1748" y1="31.9395" x2="12.2302" y2="46.6349" gradientUnits="userSpaceOnUse">
<stop stop-color="#C200FB"/>
<stop offset="0.4897" stop-color="#3772FF"/>
<stop offset="0.4898" stop-color="#3773FE"/>
<stop offset="1" stop-color="#5AC4BE"/>
</linearGradient>
<linearGradient id="paint1_linear_21763_2666" x1="48.4694" y1="30.1678" x2="11.5249" y2="44.8633" gradientUnits="userSpaceOnUse">
<stop stop-color="#C200FB"/>
<stop offset="0.4897" stop-color="#3772FF"/>
<stop offset="0.4898" stop-color="#3773FE"/>
<stop offset="1" stop-color="#5AC4BE"/>
</linearGradient>
<linearGradient id="paint2_linear_21763_2666" x1="52.1485" y1="39.4146" x2="15.204" y2="54.1101" gradientUnits="userSpaceOnUse">
<stop stop-color="#C200FB"/>
<stop offset="0.4897" stop-color="#3772FF"/>
<stop offset="0.4898" stop-color="#3773FE"/>
<stop offset="1" stop-color="#5AC4BE"/>
</linearGradient>
<linearGradient id="paint3_linear_21763_2666" x1="48.1908" y1="29.4754" x2="11.2464" y2="44.1709" gradientUnits="userSpaceOnUse">
<stop stop-color="#C200FB"/>
<stop offset="0.4897" stop-color="#3772FF"/>
<stop offset="0.4898" stop-color="#3773FE"/>
<stop offset="1" stop-color="#5AC4BE"/>
</linearGradient>
</defs>
</svg>
