<svg width="175" height="75" viewBox="0 0 175 75" fill="none" xmlns="http://www.w3.org/2000/svg">
<g clip-path="url(#clip0_21763_2699)">
<path d="M19.6594 54.4461C24.0111 54.4461 27.2814 50.6614 29.233 47.6707C28.9957 48.3324 28.8639 48.994 28.8639 49.6293C28.8639 51.376 29.866 52.62 31.8441 52.62C34.5606 52.62 37.4617 50.238 38.9651 47.6707C38.8596 48.0413 38.8068 48.3854 38.8068 48.703C38.8068 49.9204 39.4926 50.6879 40.8903 50.6879C45.2948 50.6879 49.7256 42.8805 49.7256 36.0522C49.7256 30.7326 47.0354 26.0481 40.2838 26.0481C28.4155 26.0481 15.6242 40.5515 15.6242 49.9204C15.6242 53.5992 17.6022 54.4461 19.6594 54.4461ZM36.1957 35.47C36.1957 34.1467 36.9342 33.2204 38.0156 33.2204C39.0705 33.2204 39.809 34.1467 39.809 35.47C39.809 36.7933 39.0705 37.746 38.0156 37.746C36.9342 37.746 36.1957 36.7933 36.1957 35.47ZM41.8398 35.47C41.8398 34.1467 42.5783 33.2204 43.6596 33.2204C44.7145 33.2204 45.453 34.1467 45.453 35.47C45.453 36.7933 44.7145 37.746 43.6596 37.746C42.5783 37.746 41.8398 36.7933 41.8398 35.47Z" fill="#AB9FF2"/>
<path d="M55.0012 51.5608H58.9572V47.6703C58.9572 45.8442 58.799 45.156 57.8759 43.3034L58.377 43.0387C59.7221 46.1882 61.6211 47.3262 63.5727 47.3262C66.7111 47.3262 69.2166 44.5737 69.2166 40.3128C69.2166 36.237 66.9221 33.2463 63.6254 33.2463C61.6738 33.2463 59.7221 34.3579 58.377 37.5338L57.8759 37.2692C58.5089 35.9988 58.9572 34.8078 58.9572 33.6698H55.0012V51.5608ZM58.9572 40.2863C58.9572 38.5395 60.276 36.6075 62.2276 36.6075C63.81 36.6075 65.1023 37.9044 65.1023 40.2598C65.1023 42.5888 63.8627 43.9651 62.2012 43.9651C60.3551 43.9651 58.9572 42.086 58.9572 40.2863Z" fill="#AB9FF2"/>
<path d="M70.6575 46.9034H74.6135V42.2453C74.6135 38.9636 75.774 36.6346 77.9366 36.6346C79.3081 36.6346 79.7301 37.5609 79.7301 39.8634V46.9034H83.6862V39.2283C83.6862 35.0466 82.1829 33.2469 79.3081 33.2469C76.3542 33.2469 75.3784 35.2319 74.2444 37.6403L73.7432 37.3756C74.4289 35.8935 74.6135 34.9937 74.6135 33.6704V29.0918H70.6575V46.9034Z" fill="#AB9FF2"/>
<path d="M89.4701 47.3262C92.0283 47.3262 93.5316 45.6324 94.6657 43.4622L95.1404 43.7004C94.6393 44.7326 94.1646 45.9235 94.1646 46.9027H98.0416V39.704C98.0416 35.4166 96.2481 33.2463 92.0547 33.2463C87.9404 33.2463 85.9096 35.3107 85.514 37.4809L89.3119 38.1425C89.4437 37.0045 90.3668 36.237 91.8437 36.237C93.3207 36.237 94.1646 36.978 94.1646 37.8779C94.1646 38.7778 93.2943 39.2012 90.9734 39.2277C87.5447 39.2806 85.0129 40.5245 85.0129 43.1711C85.0129 45.3412 86.7272 47.3262 89.4701 47.3262ZM88.9426 42.9064C88.9426 40.8156 92.2656 42.2712 94.0855 40.6568V41.1331C94.0855 43.0122 92.424 44.3885 90.7623 44.3885C89.892 44.3885 88.9426 44.0179 88.9426 42.9064Z" fill="#AB9FF2"/>
<path d="M99.6086 46.9032H103.565V42.2452C103.565 38.9635 104.725 36.6345 106.888 36.6345C108.259 36.6345 108.681 37.5608 108.681 39.8633V46.9032H112.637V39.2282C112.637 35.0465 111.134 33.2468 108.259 33.2468C105.305 33.2468 104.329 35.2318 103.195 37.6402L102.694 37.3755C103.38 35.8934 103.565 34.9936 103.565 33.6703H99.6086V46.9032Z" fill="#AB9FF2"/>
<path d="M123.173 46.9576V43.6758C122.33 43.967 119.982 44.4698 119.982 42.5378V36.8476H123.147V33.6717H119.982V30.1252L116 31.3162V33.6717H113.626V36.8476H116L116.026 42.8554C116.026 47.2752 119.956 47.9104 123.173 46.9576Z" fill="#AB9FF2"/>
<path d="M131.211 47.3264C135.22 47.3264 138.279 44.2564 138.279 40.26C138.279 36.2902 135.22 33.2466 131.211 33.2466C127.202 33.2466 124.116 36.2902 124.116 40.26C124.116 44.2564 127.202 47.3264 131.211 47.3264ZM128.204 40.2865C128.204 38.0899 129.444 36.5548 131.211 36.5548C132.978 36.5548 134.191 38.0899 134.191 40.2865C134.191 42.4832 132.978 44.0182 131.211 44.0182C129.444 44.0182 128.204 42.4832 128.204 40.2865Z" fill="#AB9FF2"/>
<path d="M139.505 46.9027H143.46V42.2447C143.46 38.8306 144.542 36.634 146.283 36.634C147.417 36.634 147.786 37.5338 147.786 39.8628V46.9027H151.743V42.2447C151.743 39.0423 152.903 36.634 154.565 36.634C155.672 36.634 156.067 37.6662 156.067 39.8628V46.9027H160.024V39.2277C160.024 35.0196 158.652 33.2463 155.962 33.2463C153.167 33.2463 152.165 35.2313 151.189 37.6662L150.713 37.428C151.638 34.649 149.632 33.2463 147.654 33.2463C145.044 33.2463 144.094 35.2313 143.04 37.6397L142.564 37.375C143.223 35.8929 143.46 34.9931 143.46 33.6698H139.505V46.9027Z" fill="#AB9FF2"/>
</g>
<defs>
<clipPath id="clip0_21763_2699">
<rect width="144.399" height="28.398" fill="white" transform="translate(15.6242 26.0486)"/>
</clipPath>
</defs>
</svg>
