<svg width="175" height="75" viewBox="0 0 175 75" fill="none" xmlns="http://www.w3.org/2000/svg">
<path d="M105.154 44.1711H104.933C104.712 44.1711 104.532 43.9917 104.532 43.7725V30.5816C104.532 30.3624 104.712 30.1831 104.933 30.1831H105.154C105.374 30.1831 105.555 30.3624 105.555 30.5816V43.7725C105.555 43.9917 105.374 44.1711 105.154 44.1711Z" fill="black"/>
<path d="M78.0153 44.1711H78.2359C78.4565 44.1711 78.637 43.9917 78.637 43.7725V30.5816C78.637 30.3624 78.4565 30.1831 78.2359 30.1831H78.0153C77.7946 30.1831 77.6141 30.3624 77.6141 30.5816V43.7725C77.6141 43.9917 77.7946 44.1711 78.0153 44.1711Z" fill="black"/>
<path d="M95.3246 30.6812C95.3246 30.6613 95.3246 30.6613 95.3246 30.6414C95.3046 30.5218 95.2644 30.4023 95.1642 30.3027C95.1441 30.2826 95.1039 30.2627 95.0839 30.2428C95.0839 30.2428 95.0839 30.2428 95.0638 30.2428C95.0438 30.2229 95.0037 30.2229 94.9836 30.203H94.9636C94.9435 30.203 94.9234 30.1831 94.8833 30.1831C94.8633 30.1831 94.8633 30.1831 94.8432 30.1831C94.8232 30.1831 94.8031 30.1831 94.7831 30.1831C94.7629 30.1831 94.7629 30.1831 94.7429 30.1831C94.7229 30.1831 94.7028 30.1831 94.6828 30.1831H94.6627C94.6427 30.1831 94.6025 30.203 94.5824 30.203C94.5824 30.203 94.5624 30.203 94.5624 30.2229C94.5423 30.2428 94.5223 30.2428 94.5023 30.2627C94.4822 30.2627 94.4822 30.2826 94.4622 30.2826C94.4421 30.3027 94.422 30.3027 94.422 30.3226C94.4019 30.3425 94.4019 30.3425 94.4019 30.3624C94.3819 30.3823 94.3819 30.3823 94.3618 30.4023L86.4794 42.6766L82.5281 36.5395C82.3677 36.3003 82.0467 36.2206 81.8061 36.38C81.5653 36.5395 81.4852 36.8583 81.6456 37.0974L86.0382 43.932C86.0582 43.9519 86.0582 43.9718 86.0783 43.9718C86.0783 43.9917 86.0983 43.9917 86.0983 44.0117C86.1184 44.0316 86.1184 44.0316 86.1384 44.0515C86.1584 44.0714 86.1584 44.0714 86.1785 44.0913C86.1985 44.0913 86.1985 44.1112 86.2187 44.1112C86.2387 44.1112 86.2588 44.1313 86.2588 44.1313C86.2788 44.1313 86.2989 44.1512 86.3189 44.1512C86.3389 44.1512 86.339 44.1512 86.359 44.1711C86.379 44.1711 86.3992 44.1711 86.4192 44.1711C86.4393 44.1711 86.4393 44.1711 86.4593 44.1711C86.4794 44.1711 86.4994 44.1711 86.5195 44.1711C86.5395 44.1711 86.5395 44.1711 86.5597 44.1711C86.5797 44.1711 86.5997 44.1711 86.6198 44.1512C86.6398 44.1512 86.6398 44.1512 86.6599 44.1313C86.6799 44.1313 86.7 44.1112 86.72 44.0913C86.72 44.0913 86.7402 44.0913 86.7402 44.0714C86.7602 44.0515 86.7803 44.0515 86.8003 44.0316L86.8203 44.0117C86.8404 43.9917 86.8404 43.9917 86.8604 43.9718C86.8805 43.9519 86.8805 43.9519 86.9006 43.932L94.2615 32.4746V43.653C94.2615 43.932 94.5023 44.1711 94.7831 44.1711C95.0638 44.1711 95.3046 43.932 95.3046 43.653L95.3246 30.6812Z" fill="black"/>
<path d="M128.34 39.209H128.581C128.802 39.209 128.982 39.0297 128.982 38.8105V30.5612C128.982 30.342 128.802 30.1626 128.581 30.1626H128.34C128.119 30.1626 127.939 30.342 127.939 30.5612V38.7906C127.939 39.0297 128.119 39.209 128.34 39.209Z" fill="black"/>
<path d="M128.842 43.2955L115.784 30.3237C115.584 30.1245 115.243 30.1245 115.042 30.3237C114.942 30.4233 114.882 30.5628 114.882 30.7024V43.6542C114.882 43.9331 115.122 44.1722 115.403 44.1722C115.684 44.1722 115.925 43.9331 115.925 43.6542V31.9377L128.079 44.0128C128.28 44.2121 128.621 44.2121 128.821 44.0128C129.042 43.8136 129.042 43.4947 128.842 43.2955Z" fill="black"/>
<path d="M70.2946 43.414L67.7073 38.4325C67.5668 38.1735 67.266 38.0739 67.0052 38.2133C66.7445 38.3529 66.6442 38.6517 66.7846 38.9108L66.9851 39.3093H59.223L63.5754 30.9205C63.7158 30.6615 63.6156 30.3625 63.3548 30.2231C63.0941 30.0836 62.7732 30.1832 62.6528 30.4423L55.9337 43.3941C55.7933 43.6531 55.8936 43.952 56.1543 44.0915C56.4151 44.2309 56.7158 44.1313 56.8563 43.8723L58.6815 40.3454H67.5066L69.3318 43.8723C69.4723 44.1313 69.7731 44.2309 70.0338 44.0915C70.3347 43.9719 70.4349 43.673 70.2946 43.414Z" fill="black"/>
<path d="M48.3926 43.2341L38.003 36.3596V30.6807C38.003 30.4017 37.7623 30.1626 37.4815 30.1626C37.2007 30.1626 36.96 30.4017 36.96 30.6807V43.6325C36.96 43.9115 37.2007 44.1507 37.4815 44.1507C37.7623 44.1507 38.003 43.9115 38.003 43.6325V37.595L47.8109 44.0908C48.0516 44.2502 48.3725 44.1905 48.533 43.9514V43.9315C48.6934 43.7123 48.6333 43.3934 48.3926 43.2341Z" fill="black"/>
<path d="M41.6532 34.805L41.7735 34.9844C41.8939 35.1637 42.1546 35.2235 42.3351 35.1039L48.3923 31.079C48.5729 30.9594 48.6331 30.7003 48.5127 30.521L48.3923 30.3416C48.2721 30.1624 48.0113 30.1025 47.8308 30.2221L41.7735 34.2471C41.593 34.3666 41.5328 34.6058 41.6532 34.805Z" fill="black"/>
<path d="M153.171 34.9246C153.051 35.0442 152.992 35.2434 153.032 35.4029C153.131 35.8811 153.192 36.3991 153.192 36.9771C153.192 38.0929 152.992 39.0493 152.591 39.8464C152.189 40.6434 151.627 41.3209 150.925 41.839C150.223 42.357 149.381 42.7556 148.418 42.9947C147.456 43.2537 146.432 43.3732 145.31 43.3732C144.186 43.3732 143.144 43.2537 142.181 42.9947C141.217 42.7357 140.375 42.357 139.673 41.839C138.952 41.3209 138.41 40.6434 138.009 39.8464C137.607 39.0493 137.407 38.073 137.407 36.9771C137.407 36.2397 137.507 35.5623 137.687 34.9645C137.868 34.3668 138.129 33.8287 138.47 33.3505C138.811 32.8722 139.212 32.4539 139.693 32.1151C140.175 31.7764 140.717 31.4774 141.298 31.2383C141.879 30.9992 142.522 30.8399 143.203 30.7203C143.885 30.6008 144.587 30.5609 145.329 30.5609C146.432 30.5609 147.476 30.6804 148.439 30.9395C148.479 30.9395 148.519 30.9594 148.538 30.9594C148.659 30.9992 148.8 30.9594 148.899 30.8598L149.02 30.7402C149.221 30.541 149.141 30.1823 148.859 30.1225C147.777 29.8436 146.594 29.7041 145.35 29.7041C144.507 29.7041 143.705 29.7638 142.942 29.8834C142.181 30.0029 141.459 30.2022 140.797 30.4612C140.135 30.7203 139.533 31.0591 138.992 31.4376C138.45 31.8361 137.989 32.2944 137.607 32.8324C137.227 33.3704 136.926 33.9881 136.725 34.6656C136.504 35.3431 136.404 36.1003 136.404 36.9372C136.404 38.1926 136.624 39.2884 137.086 40.1851C137.548 41.1017 138.169 41.8589 138.992 42.4566C139.814 43.0544 140.757 43.4928 141.839 43.7718C142.942 44.0507 144.106 44.1902 145.369 44.1902C146.634 44.1902 147.796 44.0507 148.88 43.7718C149.962 43.4928 150.906 43.0544 151.708 42.4566C152.509 41.8589 153.131 41.1017 153.593 40.1851C154.054 39.2685 154.274 38.1926 154.274 36.9372C154.274 36.2996 154.215 35.7017 154.095 35.1438C153.954 34.7851 153.473 34.6258 153.171 34.9246Z" fill="black"/>
<path d="M151.686 32.6518C151.974 32.6518 152.207 32.4201 152.207 32.1343C152.207 31.8484 151.974 31.6167 151.686 31.6167C151.398 31.6167 151.165 31.8484 151.165 32.1343C151.165 32.4201 151.398 32.6518 151.686 32.6518Z" fill="black"/>
<path d="M58.7813 48.2174C58.6209 48.2174 58.4804 48.297 58.3802 48.4166C54.5091 53.677 48.3115 56.6459 41.7729 56.3869C31.644 55.9885 23.4005 47.7989 23.0194 37.7364C22.8189 32.3962 24.7444 27.355 28.475 23.5093C32.2056 19.6636 37.1998 17.5315 42.5752 17.5315C48.7929 17.5315 54.6897 20.5204 58.3802 25.5218C58.4804 25.6413 58.6209 25.7211 58.7813 25.7211C58.9618 25.7211 59.1423 25.6214 59.2226 25.462C59.3028 25.3026 59.2828 25.1033 59.1825 24.9439C55.171 19.5042 48.7528 16.3758 41.9935 16.5552C36.6984 16.6946 31.7042 18.8666 27.9535 22.6525C24.2229 26.4384 22.1169 31.3999 22.0366 36.6803C21.9564 42.1799 24.0624 47.3805 27.9535 51.3059C31.8446 55.2313 37.0594 57.4032 42.5952 57.4032C49.1138 57.4032 55.3315 54.2749 59.2026 49.0144C59.3229 48.855 59.3229 48.6557 59.2427 48.4963C59.1423 48.317 58.9819 48.2174 58.7813 48.2174Z" fill="url(#paint0_radial_21763_2651)"/>
<defs>
<radialGradient id="paint0_radial_21763_2651" cx="0" cy="0" r="1" gradientUnits="userSpaceOnUse" gradientTransform="translate(34.3486 59.1343) rotate(-54.3815) scale(42.2887 89.3794)">
<stop/>
<stop offset="1" stop-opacity="0"/>
</radialGradient>
</defs>
</svg>
