<svg width="174" height="75" viewBox="0 0 174 75" fill="none" xmlns="http://www.w3.org/2000/svg">
<path d="M75.4747 46.8808C73.5737 46.8808 71.856 46.4686 70.3443 45.6669C68.8098 44.8424 67.6188 43.6972 66.7484 42.2314C65.8781 40.7656 65.4429 39.1165 65.4429 37.3071C65.4429 35.4977 65.8781 33.8715 66.7484 32.4057C67.6188 30.9399 68.8098 29.7947 70.3443 28.9702C71.8789 28.1456 73.5737 27.7104 75.4747 27.7104C77.3758 27.7104 79.0935 28.1227 80.6052 28.9702C82.1397 29.7947 83.3307 30.917 84.2011 32.3828C85.0714 33.8257 85.5066 35.4748 85.5066 37.3071C85.5066 39.1394 85.0714 40.7656 84.2011 42.2314C83.3307 43.6743 82.1397 44.8195 80.6052 45.6669C79.0706 46.4686 77.3529 46.8808 75.4747 46.8808ZM75.4747 43.8576C76.7115 43.8576 77.8338 43.5827 78.8187 43.033C79.8035 42.4604 80.5823 41.6817 81.1549 40.6968C81.7275 39.6891 82.0023 38.5668 82.0023 37.33C82.0023 36.0932 81.7275 34.9709 81.1549 33.9861C80.5823 32.9783 79.8035 32.1996 78.8187 31.6499C77.8338 31.0773 76.7115 30.8024 75.4747 30.8024C74.2379 30.8024 73.1157 31.0773 72.1308 31.6499C71.146 32.1996 70.3672 32.9783 69.7946 33.9861C69.222 34.9709 68.9472 36.0932 68.9472 37.33C68.9472 38.5668 69.222 39.6891 69.7946 40.6968C70.3672 41.6817 71.146 42.4604 72.1308 43.033C73.1157 43.5827 74.215 43.8576 75.4747 43.8576ZM108.25 46.606L104.448 41.1549C104.288 41.1778 104.059 41.1778 103.738 41.1778H99.5465V46.606H96.0881V27.9853H103.738C105.341 27.9853 106.761 28.2601 107.929 28.7869C109.143 29.3137 110.059 30.0924 110.701 31.0773C111.342 32.0621 111.663 33.2531 111.663 34.6045C111.663 36.0016 111.319 37.2155 110.632 38.2232C109.968 39.231 108.983 39.9868 107.7 40.4907L111.983 46.606H108.25ZM108.181 34.6274C108.181 33.4364 107.792 32.5202 107.013 31.8789C106.234 31.2376 105.089 30.917 103.578 30.917H99.5236V38.3378H103.578C105.089 38.3378 106.234 38.0171 107.013 37.3758C107.792 36.7345 108.181 35.7954 108.181 34.6274ZM131.062 46.8808C129.184 46.8808 127.489 46.4686 125.954 45.6669C124.443 44.8424 123.252 43.6972 122.382 42.2314C121.534 40.7885 121.099 39.1394 121.099 37.3071C121.099 35.4748 121.534 33.8486 122.404 32.3828C123.275 30.9399 124.466 29.7947 125.977 28.9702C127.512 28.1456 129.207 27.7104 131.085 27.7104C132.619 27.7104 133.994 27.9853 135.253 28.5121C136.513 29.0389 137.567 29.8176 138.437 30.8254L136.192 32.9325C134.841 31.4896 133.192 30.7566 131.222 30.7566C129.94 30.7566 128.795 31.0315 127.787 31.6041C126.779 32.1538 125.977 32.9325 125.428 33.9174C124.855 34.9022 124.58 36.0474 124.58 37.2842C124.58 38.5439 124.855 39.6662 125.428 40.651C126 41.6359 126.779 42.4146 127.787 42.9872C128.795 43.5369 129.94 43.8117 131.222 43.8117C133.192 43.8117 134.841 43.0788 136.192 41.613L138.437 43.743C137.567 44.7508 136.49 45.5295 135.208 46.0563C133.971 46.606 132.597 46.8808 131.062 46.8808ZM156.806 27.7334C158.478 27.7334 159.921 28.054 161.157 28.7182C162.394 29.3824 163.356 30.3444 164.02 31.6499C164.708 32.9325 165.051 34.467 165.051 36.2993V46.6289H161.593V41.842H151.904V46.6289H148.492V36.2993C148.492 34.467 148.835 32.9325 149.499 31.6499C150.187 30.3444 151.149 29.3824 152.408 28.7182C153.668 28.054 155.134 27.7334 156.806 27.7334ZM161.616 38.9333V35.9787C161.616 34.2609 161.18 32.9554 160.333 32.0851C159.486 31.1918 158.295 30.7566 156.76 30.7566C155.225 30.7566 154.057 31.1918 153.187 32.0851C152.34 32.9554 151.904 34.238 151.904 35.9787V38.9333H161.616Z" fill="#1D1D1B"/>
<path d="M52.2943 36.6432C52.2943 47.385 43.5909 56.1113 32.8262 56.1113C22.0843 56.1113 13.358 47.4079 13.358 36.6432C13.358 25.9014 22.0614 17.175 32.8262 17.175C43.5909 17.175 52.2943 25.9014 52.2943 36.6432Z" fill="#FFD15C"/>
<path d="M23.4137 44.6134C23.574 44.4988 23.7343 44.3385 23.826 44.0866C23.9176 43.8117 23.8718 43.5827 23.826 43.4453C23.826 43.4453 23.826 43.4453 23.826 43.4224L23.8489 43.2391C23.9405 43.285 24.0321 43.3537 24.1695 43.4453C24.1924 43.4682 24.2382 43.4911 24.284 43.514C24.3298 43.5598 24.3986 43.5827 24.4215 43.6285C24.4902 43.6743 24.5818 43.743 24.6734 43.7888C27.2615 45.3921 29.4145 46.0563 31.1093 45.9876C32.8729 45.896 34.1097 45.0256 34.751 43.7201C35.3694 42.4604 35.3923 40.9259 34.9572 39.4829C34.522 38.04 33.6058 36.6429 32.2545 35.658C29.9642 34.0319 27.857 31.5354 26.7805 29.4053C26.2308 28.3288 26.0247 27.4585 26.0934 26.8859C26.1163 26.6111 26.2079 26.4736 26.2996 26.3591C26.3912 26.2675 26.5744 26.153 26.918 26.0843C27.628 25.9698 28.4754 25.7178 29.2999 25.443C29.6206 25.3514 29.9642 25.2368 30.2848 25.1452C31.4987 24.7788 32.7813 24.481 34.1326 24.5039C36.7666 24.5039 39.8356 25.6491 43.088 30.3902C47.2564 36.4826 44.9661 43.285 40.1792 46.8579C37.7972 48.6444 34.7968 49.5835 31.7277 49.217C28.9335 48.9193 26.0476 47.5221 23.4137 44.6134Z" fill="black" fill-opacity="0.12" stroke="black" stroke-width="1.56714"/>
<path d="M25.7956 26.4275C25.7956 26.4275 33.2393 24.4578 34.8655 24.4578C36.4916 24.4578 42.9963 27.6185 44.8973 33.3902C47.5999 41.5668 40.2707 46.9492 39.4462 46.4224C47.3251 39.9178 34.4303 27.8704 28.086 28.7637C27.2843 28.8782 27.7424 29.5653 27.7424 29.5653L27.5592 31.3289L26.2308 29.1301L25.7956 26.4275Z" fill="black"/>
<path d="M43.8213 30.9158C46.1804 35.0613 45.6765 32.6794 45.1497 37.4204C46.1117 35.863 47.6233 37.0311 48.2417 37.6266C48.3562 37.7411 48.5395 37.6724 48.5395 37.512C48.5166 36.802 48.3104 35.2904 47.1653 33.6642C45.562 31.4197 43.8213 30.9158 43.8213 30.9158Z" fill="black"/>
<path d="M45.1497 37.4204C45.6765 32.7023 46.1575 35.0613 43.8213 30.9158C43.8213 30.9158 45.562 31.4197 47.1653 33.6642C48.3333 35.2904 48.5166 36.802 48.5395 37.512C48.5395 37.6724 48.3562 37.7411 48.2417 37.6266C47.6233 37.0082 46.1117 35.8401 45.1497 37.4204ZM45.1497 37.4204C45.2413 37.1914 45.3788 36.8478 45.3788 36.8478" stroke="black" stroke-width="0.0880418"/>
<path d="M24.9246 36.7813C23.9397 38.4532 21.9013 38.3387 21.9471 40.3314C23.7565 44.3624 23.7794 44.0876 23.7794 44.0876C27.1462 42.1866 25.772 38.0181 25.2681 36.8042C25.1765 36.6439 24.9933 36.6439 24.9246 36.7813Z" fill="black"/>
<path d="M17.2975 40.4895C19.2214 40.7415 20.3895 39.0695 21.9469 40.3292C24.0083 44.2457 23.7792 44.0854 23.7792 44.0854C20.2291 45.5742 17.7784 41.9096 17.1142 40.7644C17.0226 40.627 17.1371 40.4666 17.2975 40.4895Z" fill="black"/>
<path d="M33.4907 37.9957C33.4907 37.9957 35.4376 39.9655 34.4069 40.2861C33.1472 39.5074 30.8797 40.1029 29.7803 40.4922C29.5055 40.5839 29.2307 40.3319 29.3452 40.08C29.7116 39.0493 30.6507 37.1254 32.4372 36.8735C33.4907 36.5986 33.4907 37.9957 33.4907 37.9957Z" fill="black"/>
<path d="M34.6809 28.3278C34.4519 28.0301 34.0167 27.1826 35.3909 27.1826C36.7651 27.1826 38.8494 28.7172 39.2616 29.2898C39.1242 29.6333 38.2539 29.7249 37.8187 29.6791C37.3835 29.6562 36.6277 29.5646 36.0551 29.2898C35.4825 28.992 34.9099 28.6256 34.6809 28.3278Z" fill="black" fill-opacity="0.12"/>
</svg>
